<?xml version="1.0" standalone="yes"?>
<svg title="Graphic Language" viewBox="0 0 673 998.12" xmlns="http://www.w3.org/2000/svg"><path d="m673 0h-673v673h478.78l9.72 69.67 85.83-69.67h98.67z" fill="#009ad0"></path><path d="m334.65 132.13h-4.3c-37.91.84-67.25 8.31-88.08 22.32-3.31 1.54-7.77 5.49-13.46 11.83-13.86 14.25-20.73 31.37-20.73 51.31 0 22.37 9.5 41.42 28.6 57.2 14.45 11.18 32.32 19.4 53.59 24.64l-24.64 5.59c-16.87 4.41-29.59 9.65-38.15 15.79-9.25 6.58-13.81 14.7-13.81 24.35l.99 7.52c.55 1.53 1.29 3.07 2.23 4.5 12.22-4.6 25.83-9.45 40.77-14.5-1.29-1.83-1.93-3.96-1.93-6.43 0-5.05 3.07-9.3 9.21-12.82l6.58-3.27 3.96-1.34 23.65-5.89 31.23-6.58 6.28-.99c19.7-3.76 33.95-6.93 42.71-9.55 14.5-4.35 27.31-10.29 38.5-17.76 23.65-15.98 35.48-36.72 35.48-62.1 0-16.23-4.06-30.04-12.17-41.42-10.49-14.5-26.62-25.43-48.3-32.91-18.01-6.33-37.41-9.5-58.19-9.5zm-4.3 14.45h1.63c22.62 0 39.59 6.68 50.97 20.04 6.78 7.87 11.33 17.12 13.61 27.76 1.24 5.79 1.88 12.97 1.88 21.57 0 30.43-10.19 51.51-30.58 63.09-10.98 6.14-23.26 9.2-36.86 9.2h-.64c-18.8-.2-34.29-5.44-46.32-15.79-14.5-12.47-21.62-30.98-21.38-55.52 0-20.83 5.14-37.26 15.44-49.34 11.43-13.8 28.85-20.83 52.26-21.03z" fill="#fff"></path><path d="m392.56 360.03c-1.98-.3-18.48-1.98-22.6-2.31-17.48-1.49-35.07-1.73-39.27-1.73-25.63-.44-50.18 2.72-73.63 9.5-6.98 1.93-13.66 4.3-20.14 7.08.15.05.3.1.4.2l-7.87 3.61c-2.67 1.14-5.2 2.37-7.67 3.66l-2.43 1.39c-2.18 1.24-4.31 2.52-6.33 3.91l-.69.44c-.64.5-1.29.94-1.98 1.44-18.61 13.36-28.01 30.58-28.26 51.61-.24 29.15 15.49 52.25 47.01 69.38 28.31 15.09 62.06 22.37 101.25 21.67 28.06-.45 51.96-3.96 71.7-10.49 29.34-9.9 53.44-26.87 72.29-50.97 9.4-12.27 14.16-25.09 14.16-38.45 0-14.25-5.15-26.87-15.44-37.81-17.57-17.57-46.68-27.84-80.49-32.13zm44.32 63.65c4.35 3.96 6.88 10.79 7.52 20.44 0 16.18-9.06 29.1-27.27 38.74-10.93 5.69-22.47 9.45-34.49 11.18-16.23 3.51-32.91 5.3-49.98 5.3h-2.33c-15.34 0-31.13-1.44-47.31-4.3-27.22-5.05-47.01-13.46-59.53-25.29-7.87-7.72-11.83-16.48-11.83-26.33 0-15.34 9.85-27.32 29.59-35.83 19.5-8.37 46.91-12.52 82.19-12.52l6.88.35c56.36.64 91.84 10.1 106.54 28.26z" fill="#fff"></path><path d="m480.28 535.47c-3.51-15.34-.24-31.17 9.85-47.65-10.09 15.54-24.54 28.6-43.4 39.09-17.72 10.34-31.52 14.05-41.42 11.18 7.03 3.32 15.69 8.26 25.98 14.8 10.29 6.38 17.97 10.79 23.01 13.16 17.76 7.92 39.98 9.9 66.75 5.94-23.01-5.94-36.62-18.11-40.77-36.52z" fill="#fff"></path><g fill="#009ad0"><path d="m40.17 862.3c2.05 0 3.94-.1 5.65-.29 1.72-.19 3.34-.49 4.86-.88s2.96-.86 4.3-1.41 2.69-1.18 4.04-1.88v-16.78h-11.79c-.67 0-1.21-.19-1.62-.58s-.61-.87-.61-1.43v-5.84h23.36v29.2c-1.91 1.38-3.9 2.58-5.97 3.61s-4.28 1.88-6.64 2.58c-2.35.69-4.88 1.2-7.57 1.54s-5.61.5-8.76.5c-5.52 0-10.58-.95-15.19-2.84-4.6-1.89-8.57-4.55-11.89-7.96-3.33-3.42-5.92-7.51-7.78-12.29s-2.79-10.04-2.79-15.77.91-11.1 2.73-15.88 4.42-8.88 7.8-12.29c3.38-3.42 7.47-6.06 12.27-7.94s10.17-2.81 16.11-2.81c3.01 0 5.81.22 8.39.66s4.98 1.08 7.19 1.91 4.26 1.84 6.13 3.03c1.88 1.19 3.63 2.52 5.26 4.01l-2.92 4.67c-.6.96-1.38 1.43-2.34 1.43-.57 0-1.19-.19-1.86-.58-.89-.5-1.88-1.1-2.97-1.81-1.1-.71-2.43-1.39-4.01-2.04s-3.43-1.21-5.58-1.67c-2.14-.46-4.68-.69-7.62-.69-4.28 0-8.16.7-11.63 2.1s-6.42 3.4-8.87 6-4.32 5.75-5.63 9.45-1.96 7.85-1.96 12.45.68 9.11 2.04 12.88 3.28 6.96 5.76 9.58 5.42 4.62 8.81 6c3.4 1.38 7.15 2.07 11.26 2.07z"></path><path d="m130.53 838.04v31.75h-10.25v-76.09h21.5c4.81 0 8.97.49 12.48 1.46 3.5.97 6.4 2.38 8.68 4.22s3.97 4.06 5.07 6.66 1.65 5.51 1.65 8.73c0 2.69-.42 5.2-1.27 7.54s-2.08 4.43-3.69 6.29-3.58 3.44-5.89 4.75c-2.32 1.31-4.95 2.3-7.88 2.97 1.27.74 2.41 1.82 3.4 3.24l22.19 30.21h-9.13c-1.88 0-3.26-.72-4.14-2.18l-19.75-27.18c-.6-.85-1.26-1.46-1.96-1.83-.71-.37-1.77-.56-3.19-.56h-7.81zm0-7.49h10.78c3.01 0 5.65-.36 7.94-1.09 2.28-.72 4.19-1.75 5.73-3.08s2.7-2.91 3.48-4.75 1.17-3.88 1.17-6.11c0-4.53-1.5-7.95-4.49-10.25s-7.44-3.45-13.35-3.45h-11.26v28.72z"></path><path d="m285.25 869.79h-7.96c-.92 0-1.66-.23-2.23-.69s-.99-1.04-1.27-1.75l-7.11-18.37h-34.14l-7.11 18.37c-.25.64-.67 1.2-1.27 1.7s-1.35.74-2.23.74h-7.96l30.42-76.09h10.46l30.42 76.09zm-49.86-28.25h28.41l-11.95-30.95c-.78-1.91-1.54-4.3-2.28-7.17-.39 1.45-.77 2.79-1.14 4.01s-.74 2.29-1.09 3.21z"></path><path d="m341.22 841.33v28.46h-10.25v-76.09h22.46c4.81 0 9 .56 12.56 1.67 3.56 1.12 6.5 2.7 8.84 4.75s4.08 4.53 5.23 7.43 1.73 6.14 1.73 9.72-.62 6.78-1.86 9.72-3.05 5.47-5.44 7.59-5.35 3.78-8.89 4.96c-3.54 1.19-7.59 1.78-12.16 1.78h-12.21zm0-8.18h12.21c2.94 0 5.53-.39 7.78-1.17s4.13-1.87 5.66-3.27c1.52-1.4 2.67-3.07 3.45-5.02s1.17-4.09 1.17-6.42c0-4.85-1.5-8.64-4.49-11.36s-7.51-4.09-13.57-4.09h-12.21z"></path><path d="m491.53 869.79h-10.35v-34.62h-40.99v34.62h-10.35v-76.09h10.35v33.93h40.99v-33.93h10.35z"></path><path d="m557.37 869.79h-10.3v-76.09h10.3z"></path><path d="m666.42 854.07c.57 0 1.08.23 1.54.69l4.04 4.41c-3.11 3.61-6.89 6.42-11.33 8.44s-9.8 3.03-16.06 3.03c-5.49 0-10.46-.95-14.92-2.84s-8.27-4.55-11.42-7.96-5.59-7.51-7.33-12.29-2.6-10.04-2.6-15.77.93-10.99 2.79-15.77 4.47-8.88 7.83-12.32c3.36-3.43 7.39-6.1 12.08-7.99s9.87-2.84 15.53-2.84 10.42.87 14.47 2.6c4.05 1.74 7.65 4.09 10.8 7.06l-3.34 4.73c-.25.35-.53.65-.85.88s-.78.34-1.38.34c-.46 0-.95-.17-1.46-.5-.51-.34-1.12-.75-1.83-1.25s-1.54-1.03-2.5-1.59c-.96-.57-2.09-1.1-3.4-1.59-1.31-.5-2.83-.91-4.57-1.25s-3.74-.5-6-.5c-4.07 0-7.8.7-11.18 2.1s-6.29 3.39-8.73 5.97-4.34 5.73-5.71 9.45c-1.36 3.72-2.04 7.88-2.04 12.48s.68 8.97 2.04 12.69 3.22 6.86 5.58 9.42c2.35 2.57 5.14 4.52 8.36 5.87s6.69 2.02 10.41 2.02c2.26 0 4.3-.13 6.11-.4 1.8-.26 3.48-.68 5.02-1.25s2.97-1.28 4.3-2.15 2.66-1.9 4.01-3.11c.6-.53 1.19-.8 1.75-.8z"></path><path d="m16.54 988.56h32.92v8.65h-43.22v-76.09h10.3v67.43z"></path><path d="m139.35 997.22h-7.96c-.92 0-1.66-.23-2.23-.69s-.99-1.04-1.27-1.75l-7.11-18.37h-34.14l-7.11 18.37c-.25.64-.67 1.2-1.27 1.7s-1.35.74-2.23.74h-7.96l30.42-76.09h10.46l30.42 76.09zm-49.86-28.25h28.41l-11.95-30.95c-.78-1.91-1.54-4.3-2.28-7.17-.39 1.45-.77 2.79-1.14 4.01s-.74 2.29-1.09 3.21z"></path><path d="m172.24 921.48c.44.23.95.7 1.51 1.41l44.07 57.34c-.11-.92-.18-1.81-.21-2.68-.04-.87-.05-1.71-.05-2.52v-53.89h9.03v76.09h-5.2c-.81 0-1.5-.14-2.04-.42-.55-.28-1.09-.76-1.62-1.43l-44.02-57.29c.07.89.12 1.75.16 2.6.03.85.05 1.63.05 2.34v54.21h-9.03v-76.09h5.31c.92 0 1.6.12 2.04.35z"></path><path d="m295.02 989.73c2.05 0 3.94-.1 5.65-.29 1.72-.19 3.34-.49 4.86-.88s2.96-.86 4.3-1.41 2.69-1.18 4.04-1.88v-16.78h-11.79c-.67 0-1.21-.19-1.62-.58s-.61-.87-.61-1.43v-5.84h23.36v29.2c-1.91 1.38-3.9 2.58-5.97 3.61s-4.28 1.88-6.64 2.58c-2.35.69-4.88 1.2-7.57 1.54s-5.61.5-8.76.5c-5.52 0-10.58-.95-15.19-2.84-4.6-1.89-8.57-4.55-11.89-7.96-3.33-3.42-5.92-7.51-7.78-12.29s-2.79-10.04-2.79-15.77.91-11.1 2.73-15.88 4.42-8.88 7.8-12.29c3.38-3.42 7.47-6.06 12.27-7.94s10.17-2.81 16.11-2.81c3.01 0 5.81.22 8.39.66s4.98 1.08 7.19 1.91 4.26 1.84 6.13 3.03c1.88 1.19 3.63 2.52 5.26 4.01l-2.92 4.67c-.6.96-1.38 1.43-2.34 1.43-.57 0-1.19-.19-1.86-.58-.89-.5-1.88-1.1-2.97-1.81-1.1-.71-2.43-1.39-4.01-2.04s-3.43-1.21-5.58-1.67c-2.14-.46-4.68-.69-7.62-.69-4.28 0-8.16.7-11.63 2.1s-6.42 3.4-8.87 6-4.32 5.75-5.63 9.45-1.96 7.85-1.96 12.45.68 9.11 2.04 12.88 3.28 6.96 5.76 9.58 5.42 4.62 8.81 6c3.4 1.38 7.15 2.07 11.26 2.07z"></path><path d="m384.54 989.04c3.15 0 5.96-.53 8.44-1.59s4.57-2.55 6.29-4.46 3.03-4.19 3.93-6.85c.9-2.65 1.35-5.58 1.35-8.76v-46.25h10.25v46.25c0 4.39-.7 8.46-2.1 12.21s-3.4 7-6 9.74-5.78 4.89-9.53 6.45-7.96 2.34-12.64 2.34-8.88-.78-12.64-2.34-6.94-3.71-9.56-6.45-4.63-5.99-6.03-9.74-2.1-7.82-2.1-12.21v-46.25h10.25v46.19c0 3.19.45 6.11 1.35 8.76s2.21 4.94 3.93 6.85 3.82 3.41 6.32 4.49 5.32 1.62 8.47 1.62z"></path><path d="m508.04 997.22h-7.96c-.92 0-1.66-.23-2.23-.69s-.99-1.04-1.27-1.75l-7.11-18.37h-34.14l-7.11 18.37c-.25.64-.67 1.2-1.27 1.7s-1.35.74-2.23.74h-7.96l30.42-76.09h10.46l30.42 76.09zm-49.86-28.25h28.41l-11.95-30.95c-.78-1.91-1.54-4.3-2.28-7.17-.39 1.45-.77 2.79-1.14 4.01s-.74 2.29-1.09 3.21z"></path><path d="m565.28 989.73c2.05 0 3.94-.1 5.65-.29 1.72-.19 3.34-.49 4.86-.88s2.96-.86 4.3-1.41 2.69-1.18 4.04-1.88v-16.78h-11.79c-.67 0-1.21-.19-1.62-.58s-.61-.87-.61-1.43v-5.84h23.36v29.2c-1.91 1.38-3.9 2.58-5.97 3.61s-4.28 1.88-6.64 2.58c-2.35.69-4.88 1.2-7.57 1.54s-5.61.5-8.76.5c-5.52 0-10.58-.95-15.18-2.84s-8.57-4.55-11.89-7.96c-3.33-3.42-5.92-7.51-7.78-12.29s-2.79-10.04-2.79-15.77.91-11.1 2.73-15.88 4.42-8.88 7.81-12.29c3.38-3.42 7.47-6.06 12.26-7.94 4.8-1.88 10.17-2.81 16.11-2.81 3.01 0 5.8.22 8.39.66 2.58.44 4.98 1.08 7.19 1.91s4.26 1.84 6.13 3.03c1.88 1.19 3.63 2.52 5.26 4.01l-2.92 4.67c-.6.96-1.38 1.43-2.34 1.43-.57 0-1.19-.19-1.86-.58-.88-.5-1.88-1.1-2.97-1.81-1.1-.71-2.43-1.39-4.01-2.04s-3.43-1.21-5.58-1.67c-2.14-.46-4.68-.69-7.62-.69-4.28 0-8.16.7-11.63 2.1s-6.42 3.4-8.87 6-4.32 5.75-5.63 9.45-1.96 7.85-1.96 12.45.68 9.11 2.04 12.88 3.28 6.96 5.76 9.58 5.42 4.62 8.81 6c3.4 1.38 7.15 2.07 11.26 2.07z"></path><path d="m672.1 921.13v8.39h-36.53v25.27h29.57v8.07h-29.57v25.96h36.53v8.39h-46.88v-76.09h46.88z"></path></g></svg>
